<svg version="1.2" xmlns="http://www.w3.org/2000/svg" viewBox="0 0 50 44" width="50" height="44"><style>.a{fill:none;stroke:#69e584;stroke-linecap:round;stroke-linejoin:round;stroke-width:3}.b{fill:#fff}</style><path fill-rule="evenodd" class="a" d="m30.4 22.3l10.9 6.3q0.5 0.2 0.7 0.7 0.3 0.5 0.3 1 0 0.6-0.3 1-0.2 0.5-0.7 0.8l-17 9.7c-0.6 0.3-1.3 0.5-2 0.5-0.7 0-1.4-0.2-2-0.5l-17-9.7q-0.4-0.3-0.7-0.8-0.3-0.4-0.3-1 0-0.5 0.3-1 0.3-0.5 0.7-0.7l11-6.3"/><path class="a" d="m24.3 25.8c-0.6 0.4-1.3 0.5-2 0.5-0.7 0-1.4-0.1-2-0.5l-17-9.7q-0.4-0.3-0.7-0.8-0.3-0.4-0.3-1 0-0.5 0.3-1 0.3-0.4 0.7-0.7l17-9.7c0.6-0.4 1.3-0.6 2-0.6 0.7 0 1.4 0.2 2 0.6l17 9.7q0.5 0.3 0.7 0.7 0.3 0.5 0.3 1 0 0.6-0.3 1-0.2 0.5-0.7 0.8z"/><path class="b" d="m58.7 34v-24.7h8.8q2.9 0 4.8 1 1.9 1.1 2.8 2.9 1 1.8 1 4.1 0 2.3-1 4.1-0.9 1.8-2.8 2.9-1.9 1-4.8 1h-6v-3.2h5.7q1.8 0 2.9-0.6 1.2-0.6 1.7-1.7 0.5-1.1 0.5-2.5 0-1.4-0.5-2.5-0.5-1.1-1.7-1.7-1.1-0.6-3-0.6h-4.7v21.5zm26.7 0.4q-1.7 0-3.2-0.6-1.4-0.7-2.2-2-0.8-1.2-0.8-3 0-1.6 0.6-2.6 0.6-1 1.6-1.6 1-0.6 2.3-0.9 1.3-0.3 2.6-0.5 1.6-0.2 2.7-0.3 1-0.1 1.5-0.4 0.5-0.3 0.5-1 0-1.6-0.9-2.5-0.9-0.9-2.7-0.9-1.8 0-2.8 0.8-1.1 0.8-1.5 1.8l-3.4-0.8q0.6-1.6 1.8-2.7 1.2-1 2.7-1.5 1.5-0.5 3.2-0.5 1.1 0 2.3 0.3 1.3 0.2 2.4 0.9 1.1 0.7 1.8 2 0.7 1.3 0.7 3.3v12.3h-3.5v-2.5h-0.2q-0.3 0.7-1 1.3-0.7 0.7-1.8 1.2-1.1 0.4-2.7 0.4zm0.8-2.9q1.5 0 2.6-0.6 1.1-0.6 1.6-1.5 0.6-1 0.6-2.1v-2.4q-0.2 0.2-0.8 0.4-0.5 0.1-1.2 0.3-0.7 0.1-1.4 0.2-0.6 0.1-1.1 0.1-1 0.1-1.9 0.5-0.9 0.3-1.4 0.9-0.5 0.5-0.5 1.5 0 1.3 1 2 1 0.7 2.5 0.7zm13.2 2.5v-18.5h3.5v2.9h0.2q0.5-1.5 1.8-2.4 1.3-0.8 2.9-0.8 0.3 0 0.8 0 0.5 0 0.7 0.1v3.4q-0.2 0-0.8-0.1-0.5-0.1-1.1-0.1-1.2 0-2.2 0.5-1 0.6-1.6 1.5-0.6 1-0.6 2.2v11.3zm22.8-18.5v2.9h-10.1v-2.9zm-7.4-4.5h3.6v17.6q0 1 0.3 1.5 0.3 0.6 0.8 0.7 0.5 0.2 1.1 0.2 0.4 0 0.8 0 0.3-0.1 0.5-0.1l0.6 3q-0.3 0.1-0.9 0.2-0.6 0.1-1.4 0.1-1.5 0.1-2.7-0.5-1.2-0.5-2-1.6-0.7-1.1-0.7-2.8zm19 23.4q-2.6 0-4.6-1.2-1.9-1.2-3-3.4-1.1-2.1-1.1-5 0-2.9 1.1-5 1.1-2.2 3-3.4 2-1.2 4.6-1.2 2.6 0 4.5 1.2 2 1.2 3.1 3.4 1 2.1 1 5 0 2.9-1 5-1.1 2.2-3.1 3.4-1.9 1.2-4.5 1.2zm0-3.1q1.7 0 2.8-0.9 1.1-0.9 1.6-2.3 0.6-1.5 0.6-3.3 0-1.8-0.6-3.3-0.5-1.5-1.6-2.4-1.1-0.9-2.8-0.9-1.7 0-2.8 0.9-1.1 0.9-1.7 2.4-0.5 1.5-0.5 3.3 0 1.8 0.5 3.3 0.6 1.4 1.7 2.3 1.1 0.9 2.8 0.9zm26.6-11.3l-3.3 0.6q-0.2-0.7-0.7-1.2-0.4-0.6-1.2-1-0.7-0.3-1.8-0.3-1.6 0-2.6 0.7-1 0.6-1 1.7 0 0.9 0.7 1.5 0.7 0.6 2.2 0.9l2.9 0.7q2.6 0.6 3.9 1.8 1.2 1.3 1.2 3.2 0 1.7-0.9 3-1 1.3-2.7 2-1.7 0.8-4 0.8-3.1 0-5-1.4-2-1.3-2.5-3.8l3.5-0.5q0.4 1.4 1.4 2.1 1 0.7 2.6 0.7 1.8 0 2.8-0.8 1.1-0.7 1.1-1.8 0-0.9-0.6-1.5-0.7-0.6-2-0.9l-3.1-0.6q-2.6-0.6-3.9-1.9-1.2-1.3-1.2-3.3 0-1.6 0.9-2.9 0.9-1.2 2.5-1.9 1.7-0.7 3.7-0.7 3 0 4.8 1.3 1.7 1.3 2.3 3.5zm9.7 14.4q-1.8 0-3.2-0.6-1.4-0.7-2.3-2-0.8-1.2-0.8-3 0-1.6 0.6-2.6 0.6-1 1.7-1.6 1-0.6 2.2-0.9 1.3-0.3 2.6-0.5 1.7-0.2 2.7-0.3 1.1-0.1 1.5-0.4 0.5-0.3 0.5-1v-0.1q0-1.5-0.9-2.4-0.9-0.9-2.6-0.9-1.8 0-2.9 0.8-1 0.8-1.4 1.8l-3.4-0.8q0.6-1.7 1.7-2.7 1.2-1 2.7-1.5 1.6-0.5 3.2-0.5 1.2 0 2.4 0.3 1.3 0.2 2.3 0.9 1.1 0.7 1.8 2 0.7 1.2 0.7 3.3v12.3h-3.5v-2.5h-0.1q-0.4 0.7-1.1 1.3-0.7 0.7-1.8 1.2-1.1 0.4-2.6 0.4zm0.8-2.9q1.5 0 2.5-0.6 1.1-0.6 1.7-1.5 0.5-1 0.5-2.1v-2.4q-0.2 0.2-0.7 0.4-0.6 0.1-1.3 0.3-0.7 0.1-1.3 0.2-0.7 0-1.1 0.1-1.1 0.1-2 0.4-0.8 0.4-1.3 1-0.5 0.5-0.5 1.5 0 1.3 0.9 2 1 0.7 2.6 0.7z"/></svg>